<svg width="48" height="48" xmlns="http://www.w3.org/2000/svg">

    <g>
        <title>background</title>
        <rect fill="none" id="canvas_background" height="402" width="582" y="-1" x="-1"/>
    </g>
    <g>
        <title>Layer 1</title>
        <ellipse stroke="#000" ry="18.971256" rx="18.60817" id="svg_10" cy="25.715583" cx="24.136157" stroke-width="0.7"
                 fill="#27c6c6"/>
        <circle stroke-miterlimit="10" stroke-linejoin="round" stroke-linecap="round" stroke-width="0.7"
                stroke="#303030" fill="none" id="svg_2" r="7.26353" cy="19.15045" cx="24" class="st1"/>
        <path stroke-miterlimit="10" stroke-linejoin="round" stroke-linecap="round" stroke-width="0.7" stroke="#303030"
              fill="none" id="svg_3" d="m19.12193,17.23642c0.48483,-2.4277 2.8459,-4.00272 5.2736,-3.51789"
              class="st1"/>
        <path stroke-miterlimit="10" stroke-linejoin="round" stroke-linecap="round" stroke-width="0.7" stroke="#303030"
              fill="none" id="svg_4"
              d="m11.54175,36.11307c0,-3.88968 3.18246,-7.07214 7.07214,-7.07214l10.77223,0c3.88968,0 7.07214,3.18246 7.07214,7.07214"
              class="st1"/>
        <path stroke-miterlimit="10" stroke-linejoin="round" stroke-linecap="round" stroke-width="0.7" stroke="#303030"
              fill="none" id="svg_5" d="m18.98164,18.68699c0,0 -0.10733,0.99282 0,1.44898" class="st1"/>
        <circle stroke-miterlimit="10" stroke-linejoin="round" stroke-linecap="round" stroke-width="0.7"
                stroke="#303030" fill="none" id="svg_6" r="7.26353" cy="19.15045" cx="24" class="st1"/>
        <path stroke-miterlimit="10" stroke-linejoin="round" stroke-linecap="round" stroke-width="0.7" stroke="#303030"
              fill="none" id="svg_7" d="m19.12193,17.23642c0.48483,-2.4277 2.8459,-4.00272 5.2736,-3.51789"
              class="st1"/>
        <path stroke-miterlimit="10" stroke-linejoin="round" stroke-linecap="round" stroke-width="0.7" stroke="#303030"
              fill="none" id="svg_8"
              d="m11.54175,36.11307c0,-3.88968 3.18246,-7.07214 7.07214,-7.07214l10.77223,0c3.88968,0 7.07214,3.18246 7.07214,7.07214"
              class="st1"/>
        <path stroke-miterlimit="10" stroke-linejoin="round" stroke-linecap="round" stroke-width="0.7" stroke="#303030"
              fill="none" id="svg_9" d="m18.98164,18.68699c0,0 -0.10733,0.99282 0,1.44898" class="st1"/>
    </g>
</svg>